<svg width="279" height="209" viewBox="0 0 279 209" fill="none" xmlns="http://www.w3.org/2000/svg">
<path d="M3 80.5V143.47C3 145.649 4.18135 147.656 6.08614 148.715L79.5 189.5M3 80.5L79.5 121.5M3 80.5L41.25 57.75M155.5 80.5L82.5719 36.8391C80.6796 35.7062 78.3184 35.7028 76.4228 36.8302L41.25 57.75M155.5 80.5V139.637C155.5 141.726 154.413 143.665 152.631 144.755L79.5 189.5M155.5 80.5L117.5 101M79.5 189.5V121.5M79.5 121.5L117.5 101M41.25 57.75L117.5 101" stroke="white" stroke-width="6" stroke-linecap="round" stroke-linejoin="round"/>
<path d="M114 35.1003V78.4792C114 80.6617 115.185 82.6721 117.095 83.7289L168.177 112M114 35.1003L168.177 64.0259M114 35.1003L141.089 19.0502M222 35.1003L171.24 4.82697C169.352 3.70095 167 3.69757 165.109 4.81813L141.089 19.0502M222 35.1003V75.8246C222 77.9173 220.91 79.8588 219.123 80.9479L168.177 112M222 35.1003L195.089 49.5631M168.177 112V64.0259M168.177 64.0259L195.089 49.5631M141.089 19.0502L195.089 49.5631" stroke="white" stroke-width="6" stroke-linecap="round" stroke-linejoin="round"/>
<path d="M168 129.1V172.479C168 174.662 169.185 176.672 171.095 177.729L222.177 206M168 129.1L222.177 158.026M168 129.1L195.089 113.05M276 129.1L225.24 98.827C223.352 97.701 221 97.6976 219.109 98.8181L195.089 113.05M276 129.1V169.825C276 171.917 274.91 173.859 273.123 174.948L222.177 206M276 129.1L249.089 143.563M222.177 206V158.026M222.177 158.026L249.089 143.563M195.089 113.05L249.089 143.563" stroke="white" stroke-width="6" stroke-linecap="round" stroke-linejoin="round"/>
</svg>
